<?xml version="1.0" standalone="no"?><!DOCTYPE svg PUBLIC "-//W3C//DTD SVG 1.1//EN" "http://www.w3.org/Graphics/SVG/1.1/DTD/svg11.dtd"><svg xmlns="http://www.w3.org/2000/svg" version="1.1" width="170" height="140" xmlns:xlink="http://www.w3.org/1999/xlink" xlink="http://www.w3.org/1999/xlink" style="position:relative;overflow:hidden;" viewBox="38.313 38.313 170 140"><defs><filter id="sFX_GLW.4#FFD64ASS" x="-0.5" y="-0.5" width="2" height="2"><feFlood flood-color="#FFD64A" result="flood"/><feComposite in="flood" in2="SourceAlpha" operator="in" result="mask"/><feGaussianBlur in="mask" stdDeviation="4"/></filter></defs><g><g width="25" height="25" transform="scale(1,1) translate(50.813,50.813)"><g><g transform="scale(1,1) translate(0,0)" stroke="#1C8BE6" stroke-opacity="1" fill="#8AC7FA" fill-opacity="1"><path d="M0,5 a5,5 0 0,1 5,-5 l15,0 a5,5 0 0,1 5,5 l0,15 a5,5 0 0,1 -5,5 l-15,0 a5,5 0 0,1 -5,-5 z" stroke-width="1" stroke-dasharray="none"/></g></g></g><g width="25" height="25" transform="scale(1,1) translate(80.813,50.813)"><g><g transform="scale(1,1) translate(0,0)" stroke="#1C8BE6" stroke-opacity="1" fill="#8AC7FA" fill-opacity="1"><path d="M0,5 a5,5 0 0,1 5,-5 l15,0 a5,5 0 0,1 5,5 l0,15 a5,5 0 0,1 -5,5 l-15,0 a5,5 0 0,1 -5,-5 z" stroke-width="1" stroke-dasharray="none"/></g></g></g><g width="25" height="25" transform="scale(1,1) translate(110.813,50.813)"><g><g transform="scale(1,1) translate(0,0)" stroke="#1C8BE6" stroke-opacity="1" fill="#8AC7FA" fill-opacity="1"><path d="M0,5 a5,5 0 0,1 5,-5 l15,0 a5,5 0 0,1 5,5 l0,15 a5,5 0 0,1 -5,5 l-15,0 a5,5 0 0,1 -5,-5 z" stroke-width="1" stroke-dasharray="none"/></g></g></g><g width="25" height="25" transform="scale(1,1) translate(140.813,50.813)"><g><g transform="scale(1,1) translate(0,0)" stroke="#1C8BE6" stroke-opacity="1" fill="#8AC7FA" fill-opacity="1"><path d="M0,5 a5,5 0 0,1 5,-5 l15,0 a5,5 0 0,1 5,5 l0,15 a5,5 0 0,1 -5,5 l-15,0 a5,5 0 0,1 -5,-5 z" stroke-width="1" stroke-dasharray="none"/></g></g></g><g width="25" height="25" transform="scale(1,1) translate(50.813,110.813)"><g><g transform="scale(1,1) translate(0,0)" stroke="#1C8BE6" stroke-opacity="1" fill="#8AC7FA" fill-opacity="1"><path d="M0,5 a5,5 0 0,1 5,-5 l15,0 a5,5 0 0,1 5,5 l0,15 a5,5 0 0,1 -5,5 l-15,0 a5,5 0 0,1 -5,-5 z" stroke-width="1" stroke-dasharray="none"/></g></g></g><g width="25" height="25" transform="scale(1,1) translate(170.813,140.813)"><g><g transform="scale(1,1) translate(0,0)" stroke="#1C8BE6" stroke-opacity="1" fill="#8AC7FA" fill-opacity="1"><path d="M0,5 a5,5 0 0,1 5,-5 l15,0 a5,5 0 0,1 5,5 l0,15 a5,5 0 0,1 -5,5 l-15,0 a5,5 0 0,1 -5,-5 z" stroke-width="1" stroke-dasharray="none"/></g></g></g><g width="25" height="25" transform="scale(1,1) translate(50.813,140.813)"><g><g transform="scale(1,1) translate(0,0)" stroke="#1C8BE6" stroke-opacity="1" fill="#8AC7FA" fill-opacity="1"><path d="M0,5 a5,5 0 0,1 5,-5 l15,0 a5,5 0 0,1 5,5 l0,15 a5,5 0 0,1 -5,5 l-15,0 a5,5 0 0,1 -5,-5 z" stroke-width="1" stroke-dasharray="none"/></g></g></g><g width="25" height="25" transform="scale(1,1) translate(80.813,140.813)"><g><g transform="scale(1,1) translate(0,0)" stroke="#1C8BE6" stroke-opacity="1" fill="#8AC7FA" fill-opacity="1"><path d="M0,5 a5,5 0 0,1 5,-5 l15,0 a5,5 0 0,1 5,5 l0,15 a5,5 0 0,1 -5,5 l-15,0 a5,5 0 0,1 -5,-5 z" stroke-width="1" stroke-dasharray="none"/></g></g></g><g width="25" height="25" transform="scale(1,1) translate(110.813,140.813)"><g><g transform="scale(1,1) translate(0,0)" stroke="#1C8BE6" stroke-opacity="1" fill="#8AC7FA" fill-opacity="1"><path d="M0,5 a5,5 0 0,1 5,-5 l15,0 a5,5 0 0,1 5,5 l0,15 a5,5 0 0,1 -5,5 l-15,0 a5,5 0 0,1 -5,-5 z" stroke-width="1" stroke-dasharray="none"/></g></g></g><g width="25" height="25" transform="scale(1,1) translate(140.813,140.813)"><g><g transform="scale(1,1) translate(0,0)" stroke="#1C8BE6" stroke-opacity="1" fill="#8AC7FA" fill-opacity="1"><path d="M0,5 a5,5 0 0,1 5,-5 l15,0 a5,5 0 0,1 5,5 l0,15 a5,5 0 0,1 -5,5 l-15,0 a5,5 0 0,1 -5,-5 z" stroke-width="1" stroke-dasharray="none"/></g></g></g><g width="25" height="25" transform="scale(1,1) translate(50.813,80.813)"><g><g transform="scale(1,1) translate(0,0)" stroke="#1C8BE6" stroke-opacity="1" fill="#8AC7FA" fill-opacity="1"><path d="M0,5 a5,5 0 0,1 5,-5 l15,0 a5,5 0 0,1 5,5 l0,15 a5,5 0 0,1 -5,5 l-15,0 a5,5 0 0,1 -5,-5 z" stroke-width="1" stroke-dasharray="none"/></g></g></g><g width="25" height="25" transform="scale(1,1) translate(170.813,110.813)"><g><g transform="scale(1,1) translate(0,0)" stroke="#1C8BE6" stroke-opacity="1" fill="#8AC7FA" fill-opacity="1"><path d="M0,5 a5,5 0 0,1 5,-5 l15,0 a5,5 0 0,1 5,5 l0,15 a5,5 0 0,1 -5,5 l-15,0 a5,5 0 0,1 -5,-5 z" stroke-width="1" stroke-dasharray="none"/></g></g></g><g width="25" height="25" transform="scale(1,1) translate(170.813,80.813)"><g><g transform="scale(1,1) translate(0,0)" stroke="#1C8BE6" stroke-opacity="1" fill="#8AC7FA" fill-opacity="1"><path d="M0,5 a5,5 0 0,1 5,-5 l15,0 a5,5 0 0,1 5,5 l0,15 a5,5 0 0,1 -5,5 l-15,0 a5,5 0 0,1 -5,-5 z" stroke-width="1" stroke-dasharray="none"/></g></g></g><g width="25" height="25" transform="scale(1,1) translate(170.813,50.813)"><g><g transform="scale(1,1) translate(0,0)" stroke="#1C8BE6" stroke-opacity="1" fill="#8AC7FA" fill-opacity="1"><path d="M0,5 a5,5 0 0,1 5,-5 l15,0 a5,5 0 0,1 5,5 l0,15 a5,5 0 0,1 -5,5 l-15,0 a5,5 0 0,1 -5,-5 z" stroke-width="1" stroke-dasharray="none"/></g></g></g></g></svg>