<?xml version="1.0" standalone="no"?><!DOCTYPE svg PUBLIC "-//W3C//DTD SVG 1.1//EN" "http://www.w3.org/Graphics/SVG/1.1/DTD/svg11.dtd"><svg xmlns="http://www.w3.org/2000/svg" version="1.1" width="140" height="110" xmlns:xlink="http://www.w3.org/1999/xlink" xlink="http://www.w3.org/1999/xlink" style="position:relative;overflow:hidden;" viewBox="288.313 288.313 140 110"><defs><filter id="sFX_GLW.4#FFD64ASS" x="-0.5" y="-0.5" width="2" height="2"><feFlood flood-color="#FFD64A" result="flood"/><feComposite in="flood" in2="SourceAlpha" operator="in" result="mask"/><feGaussianBlur in="mask" stdDeviation="4"/></filter></defs><g><g width="25" height="25" transform="scale(1,1) translate(300.813,300.813)"><g><g transform="scale(1,1) translate(0,0)" stroke="#1C8BE6" stroke-opacity="1" fill="#61FB4F" fill-opacity="1"><path d="M0,5 a5,5 0 0,1 5,-5 l15,0 a5,5 0 0,1 5,5 l0,15 a5,5 0 0,1 -5,5 l-15,0 a5,5 0 0,1 -5,-5 z" stroke-width="1" stroke-dasharray="none"/></g></g></g><g width="25" height="25" transform="scale(1,1) translate(330.813,300.813)"><g><g transform="scale(1,1) translate(0,0)" stroke="#1C8BE6" stroke-opacity="1" fill="#61FB4F" fill-opacity="1"><path d="M0,5 a5,5 0 0,1 5,-5 l15,0 a5,5 0 0,1 5,5 l0,15 a5,5 0 0,1 -5,5 l-15,0 a5,5 0 0,1 -5,-5 z" stroke-width="1" stroke-dasharray="none"/></g></g></g><g width="25" height="25" transform="scale(1,1) translate(360.813,300.813)"><g><g transform="scale(1,1) translate(0,0)" stroke="#1C8BE6" stroke-opacity="1" fill="#61FB4F" fill-opacity="1"><path d="M0,5 a5,5 0 0,1 5,-5 l15,0 a5,5 0 0,1 5,5 l0,15 a5,5 0 0,1 -5,5 l-15,0 a5,5 0 0,1 -5,-5 z" stroke-width="1" stroke-dasharray="none"/></g></g></g><g width="25" height="25" transform="scale(1,1) translate(390.813,300.813)"><g><g transform="scale(1,1) translate(0,0)" stroke="#1C8BE6" stroke-opacity="1" fill="#61FB4F" fill-opacity="1"><path d="M0,5 a5,5 0 0,1 5,-5 l15,0 a5,5 0 0,1 5,5 l0,15 a5,5 0 0,1 -5,5 l-15,0 a5,5 0 0,1 -5,-5 z" stroke-width="1" stroke-dasharray="none"/></g></g></g><g width="25" height="25" transform="scale(1,1) translate(300.813,330.813)"><g><g transform="scale(1,1) translate(0,0)" stroke="#1C8BE6" stroke-opacity="1" fill="#61FB4F" fill-opacity="1"><path d="M0,5 a5,5 0 0,1 5,-5 l15,0 a5,5 0 0,1 5,5 l0,15 a5,5 0 0,1 -5,5 l-15,0 a5,5 0 0,1 -5,-5 z" stroke-width="1" stroke-dasharray="none"/></g></g></g><g width="25" height="25" transform="scale(1,1) translate(390.813,330.813)"><g><g transform="scale(1,1) translate(0,0)" stroke="#1C8BE6" stroke-opacity="1" fill="#61FB4F" fill-opacity="1"><path d="M0,5 a5,5 0 0,1 5,-5 l15,0 a5,5 0 0,1 5,5 l0,15 a5,5 0 0,1 -5,5 l-15,0 a5,5 0 0,1 -5,-5 z" stroke-width="1" stroke-dasharray="none"/></g></g></g><g width="25" height="25" transform="scale(1,1) translate(300.813,360.813)"><g><g transform="scale(1,1) translate(0,0)" stroke="#1C8BE6" stroke-opacity="1" fill="#61FB4F" fill-opacity="1"><path d="M0,5 a5,5 0 0,1 5,-5 l15,0 a5,5 0 0,1 5,5 l0,15 a5,5 0 0,1 -5,5 l-15,0 a5,5 0 0,1 -5,-5 z" stroke-width="1" stroke-dasharray="none"/></g></g></g><g width="25" height="25" transform="scale(1,1) translate(330.813,360.813)"><g><g transform="scale(1,1) translate(0,0)" stroke="#1C8BE6" stroke-opacity="1" fill="#61FB4F" fill-opacity="1"><path d="M0,5 a5,5 0 0,1 5,-5 l15,0 a5,5 0 0,1 5,5 l0,15 a5,5 0 0,1 -5,5 l-15,0 a5,5 0 0,1 -5,-5 z" stroke-width="1" stroke-dasharray="none"/></g></g></g><g width="25" height="25" transform="scale(1,1) translate(360.813,360.813)"><g><g transform="scale(1,1) translate(0,0)" stroke="#1C8BE6" stroke-opacity="1" fill="#61FB4F" fill-opacity="1"><path d="M0,5 a5,5 0 0,1 5,-5 l15,0 a5,5 0 0,1 5,5 l0,15 a5,5 0 0,1 -5,5 l-15,0 a5,5 0 0,1 -5,-5 z" stroke-width="1" stroke-dasharray="none"/></g></g></g><g width="25" height="25" transform="scale(1,1) translate(390.813,360.813)"><g><g transform="scale(1,1) translate(0,0)" stroke="#1C8BE6" stroke-opacity="1" fill="#61FB4F" fill-opacity="1"><path d="M0,5 a5,5 0 0,1 5,-5 l15,0 a5,5 0 0,1 5,5 l0,15 a5,5 0 0,1 -5,5 l-15,0 a5,5 0 0,1 -5,-5 z" stroke-width="1" stroke-dasharray="none"/></g></g></g></g></svg>