<?xml version="1.0" standalone="no"?><!DOCTYPE svg PUBLIC "-//W3C//DTD SVG 1.1//EN" "http://www.w3.org/Graphics/SVG/1.1/DTD/svg11.dtd"><svg xmlns="http://www.w3.org/2000/svg" version="1.1" width="230" height="200" xmlns:xlink="http://www.w3.org/1999/xlink" xlink="http://www.w3.org/1999/xlink" style="position:relative;overflow:hidden;" viewBox="58.313 88.313 230 200"><defs><filter id="sFX_GLW.4#FFD64ASS" x="-0.5" y="-0.5" width="2" height="2"><feFlood flood-color="#FFD64A" result="flood"/><feComposite in="flood" in2="SourceAlpha" operator="in" result="mask"/><feGaussianBlur in="mask" stdDeviation="4"/></filter></defs><g><g width="25" height="25" transform="scale(1,1) translate(100.813,100.813)"><g><g transform="scale(1,1) translate(0,0)" stroke="#1C8BE6" stroke-opacity="1" fill="#DB9CFF" fill-opacity="1"><path d="M0,5 a5,5 0 0,1 5,-5 l15,0 a5,5 0 0,1 5,5 l0,15 a5,5 0 0,1 -5,5 l-15,0 a5,5 0 0,1 -5,-5 z" stroke-width="1" stroke-dasharray="none"/></g></g></g><g width="25" height="25" transform="scale(1,1) translate(100.813,130.813)"><g><g transform="scale(1,1) translate(0,0)" stroke="#1C8BE6" stroke-opacity="1" fill="#DB9CFF" fill-opacity="1"><path d="M0,5 a5,5 0 0,1 5,-5 l15,0 a5,5 0 0,1 5,5 l0,15 a5,5 0 0,1 -5,5 l-15,0 a5,5 0 0,1 -5,-5 z" stroke-width="1" stroke-dasharray="none"/></g></g></g><g width="25" height="25" transform="scale(1,1) translate(130.813,130.813)"><g><g transform="scale(1,1) translate(0,0)" stroke="#1C8BE6" stroke-opacity="1" fill="#DB9CFF" fill-opacity="1"><path d="M0,5 a5,5 0 0,1 5,-5 l15,0 a5,5 0 0,1 5,5 l0,15 a5,5 0 0,1 -5,5 l-15,0 a5,5 0 0,1 -5,-5 z" stroke-width="1" stroke-dasharray="none"/></g></g></g><g width="25" height="25" transform="scale(1,1) translate(160.813,130.813)"><g><g transform="scale(1,1) translate(0,0)" stroke="#1C8BE6" stroke-opacity="1" fill="#DB9CFF" fill-opacity="1"><path d="M0,5 a5,5 0 0,1 5,-5 l15,0 a5,5 0 0,1 5,5 l0,15 a5,5 0 0,1 -5,5 l-15,0 a5,5 0 0,1 -5,-5 z" stroke-width="1" stroke-dasharray="none"/></g></g></g><g width="25" height="25" transform="scale(1,1) translate(190.813,130.813)"><g id="a95325bf-e06f-44bf-827e-a70ca184f871"><g transform="scale(1,1) translate(0,0)" stroke="#1C8BE6" stroke-opacity="1" fill="#DB9CFF" fill-opacity="1"><path d="M0,5 a5,5 0 0,1 5,-5 l15,0 a5,5 0 0,1 5,5 l0,15 a5,5 0 0,1 -5,5 l-15,0 a5,5 0 0,1 -5,-5 z" stroke-width="1" stroke-dasharray="none"/></g></g></g><g width="25" height="25" transform="scale(1,1) translate(100.813,190.813)"><g><g transform="scale(1,1) translate(0,0)" stroke="#1C8BE6" stroke-opacity="1" fill="#DB9CFF" fill-opacity="1"><path d="M0,5 a5,5 0 0,1 5,-5 l15,0 a5,5 0 0,1 5,5 l0,15 a5,5 0 0,1 -5,5 l-15,0 a5,5 0 0,1 -5,-5 z" stroke-width="1" stroke-dasharray="none"/></g></g></g><g width="25" height="25" transform="scale(1,1) translate(220.813,220.813)"><g><g transform="scale(1,1) translate(0,0)" stroke="#1C8BE6" stroke-opacity="1" fill="#DB9CFF" fill-opacity="1"><path d="M0,5 a5,5 0 0,1 5,-5 l15,0 a5,5 0 0,1 5,5 l0,15 a5,5 0 0,1 -5,5 l-15,0 a5,5 0 0,1 -5,-5 z" stroke-width="1" stroke-dasharray="none"/></g></g></g><g width="25" height="25" transform="scale(1,1) translate(100.813,220.813)"><g><g transform="scale(1,1) translate(0,0)" stroke="#1C8BE6" stroke-opacity="1" fill="#DB9CFF" fill-opacity="1"><path d="M0,5 a5,5 0 0,1 5,-5 l15,0 a5,5 0 0,1 5,5 l0,15 a5,5 0 0,1 -5,5 l-15,0 a5,5 0 0,1 -5,-5 z" stroke-width="1" stroke-dasharray="none"/></g></g></g><g width="25" height="25" transform="scale(1,1) translate(130.813,220.813)"><g><g transform="scale(1,1) translate(0,0)" stroke="#1C8BE6" stroke-opacity="1" fill="#DB9CFF" fill-opacity="1"><path d="M0,5 a5,5 0 0,1 5,-5 l15,0 a5,5 0 0,1 5,5 l0,15 a5,5 0 0,1 -5,5 l-15,0 a5,5 0 0,1 -5,-5 z" stroke-width="1" stroke-dasharray="none"/></g></g></g><g width="25" height="25" transform="scale(1,1) translate(160.813,220.813)"><g><g transform="scale(1,1) translate(0,0)" stroke="#1C8BE6" stroke-opacity="1" fill="#DB9CFF" fill-opacity="1"><path d="M0,5 a5,5 0 0,1 5,-5 l15,0 a5,5 0 0,1 5,5 l0,15 a5,5 0 0,1 -5,5 l-15,0 a5,5 0 0,1 -5,-5 z" stroke-width="1" stroke-dasharray="none"/></g></g></g><g width="25" height="25" transform="scale(1,1) translate(190.813,220.813)"><g><g transform="scale(1,1) translate(0,0)" stroke="#1C8BE6" stroke-opacity="1" fill="#DB9CFF" fill-opacity="1"><path d="M0,5 a5,5 0 0,1 5,-5 l15,0 a5,5 0 0,1 5,5 l0,15 a5,5 0 0,1 -5,5 l-15,0 a5,5 0 0,1 -5,-5 z" stroke-width="1" stroke-dasharray="none"/></g></g></g><g width="25" height="25" transform="scale(1,1) translate(100.813,160.813)"><g><g transform="scale(1,1) translate(0,0)" stroke="#1C8BE6" stroke-opacity="1" fill="#DB9CFF" fill-opacity="1"><path d="M0,5 a5,5 0 0,1 5,-5 l15,0 a5,5 0 0,1 5,5 l0,15 a5,5 0 0,1 -5,5 l-15,0 a5,5 0 0,1 -5,-5 z" stroke-width="1" stroke-dasharray="none"/></g></g></g><g width="25" height="25" transform="scale(1,1) translate(220.813,190.813)"><g><g transform="scale(1,1) translate(0,0)" stroke="#1C8BE6" stroke-opacity="1" fill="#DB9CFF" fill-opacity="1"><path d="M0,5 a5,5 0 0,1 5,-5 l15,0 a5,5 0 0,1 5,5 l0,15 a5,5 0 0,1 -5,5 l-15,0 a5,5 0 0,1 -5,-5 z" stroke-width="1" stroke-dasharray="none"/></g></g></g><g width="25" height="25" transform="scale(1,1) translate(220.813,160.813)"><g><g transform="scale(1,1) translate(0,0)" stroke="#1C8BE6" stroke-opacity="1" fill="#DB9CFF" fill-opacity="1"><path d="M0,5 a5,5 0 0,1 5,-5 l15,0 a5,5 0 0,1 5,5 l0,15 a5,5 0 0,1 -5,5 l-15,0 a5,5 0 0,1 -5,-5 z" stroke-width="1" stroke-dasharray="none"/></g></g></g><g width="25" height="25" transform="scale(1,1) translate(220.813,130.813)"><g id="bfa51383-ade7-40df-8e09-109962d8d8e1"><g transform="scale(1,1) translate(0,0)" stroke="#1C8BE6" stroke-opacity="1" fill="#DB9CFF" fill-opacity="1"><path d="M0,5 a5,5 0 0,1 5,-5 l15,0 a5,5 0 0,1 5,5 l0,15 a5,5 0 0,1 -5,5 l-15,0 a5,5 0 0,1 -5,-5 z" stroke-width="1" stroke-dasharray="none"/></g></g></g><g width="25" height="25" transform="scale(1,1) translate(100.813,250.813)"><g><g transform="scale(1,1) translate(0,0)" stroke="#1C8BE6" stroke-opacity="1" fill="#DB9CFF" fill-opacity="1"><path d="M0,5 a5,5 0 0,1 5,-5 l15,0 a5,5 0 0,1 5,5 l0,15 a5,5 0 0,1 -5,5 l-15,0 a5,5 0 0,1 -5,-5 z" stroke-width="1" stroke-dasharray="none"/></g></g></g><g width="25" height="25" transform="scale(1,1) translate(70.813,130.813)"><g><g transform="scale(1,1) translate(0,0)" stroke="#1C8BE6" stroke-opacity="1" fill="#DB9CFF" fill-opacity="1"><path d="M0,5 a5,5 0 0,1 5,-5 l15,0 a5,5 0 0,1 5,5 l0,15 a5,5 0 0,1 -5,5 l-15,0 a5,5 0 0,1 -5,-5 z" stroke-width="1" stroke-dasharray="none"/></g></g></g><g width="25" height="25" transform="scale(1,1) translate(70.813,220.813)"><g><g transform="scale(1,1) translate(0,0)" stroke="#1C8BE6" stroke-opacity="1" fill="#DB9CFF" fill-opacity="1"><path d="M0,5 a5,5 0 0,1 5,-5 l15,0 a5,5 0 0,1 5,5 l0,15 a5,5 0 0,1 -5,5 l-15,0 a5,5 0 0,1 -5,-5 z" stroke-width="1" stroke-dasharray="none"/></g></g></g><g width="25" height="25" transform="scale(1,1) translate(220.813,100.813)"><g><g transform="scale(1,1) translate(0,0)" stroke="#1C8BE6" stroke-opacity="1" fill="#DB9CFF" fill-opacity="1"><path d="M0,5 a5,5 0 0,1 5,-5 l15,0 a5,5 0 0,1 5,5 l0,15 a5,5 0 0,1 -5,5 l-15,0 a5,5 0 0,1 -5,-5 z" stroke-width="1" stroke-dasharray="none"/></g></g></g><g width="25" height="25" transform="scale(1,1) translate(220.813,250.813)"><g><g transform="scale(1,1) translate(0,0)" stroke="#1C8BE6" stroke-opacity="1" fill="#DB9CFF" fill-opacity="1"><path d="M0,5 a5,5 0 0,1 5,-5 l15,0 a5,5 0 0,1 5,5 l0,15 a5,5 0 0,1 -5,5 l-15,0 a5,5 0 0,1 -5,-5 z" stroke-width="1" stroke-dasharray="none"/></g></g></g><g width="25" height="25" transform="scale(1,1) translate(250.813,130.813)"><g id="2ceac4a6-57f4-4295-81bc-cf18416b23f6"><g transform="scale(1,1) translate(0,0)" stroke="#1C8BE6" stroke-opacity="1" fill="#DB9CFF" fill-opacity="1"><path d="M0,5 a5,5 0 0,1 5,-5 l15,0 a5,5 0 0,1 5,5 l0,15 a5,5 0 0,1 -5,5 l-15,0 a5,5 0 0,1 -5,-5 z" stroke-width="1" stroke-dasharray="none"/></g></g></g><g width="25" height="25" transform="scale(1,1) translate(250.813,220.813)"><g><g transform="scale(1,1) translate(0,0)" stroke="#1C8BE6" stroke-opacity="1" fill="#DB9CFF" fill-opacity="1"><path d="M0,5 a5,5 0 0,1 5,-5 l15,0 a5,5 0 0,1 5,5 l0,15 a5,5 0 0,1 -5,5 l-15,0 a5,5 0 0,1 -5,-5 z" stroke-width="1" stroke-dasharray="none"/></g></g></g></g></svg>